<?xml version="1.0" encoding="UTF-8"?>
<!DOCTYPE svg PUBLIC "-//W3C//DTD SVG 1.1//EN" "http://www.w3.org/Graphics/SVG/1.1/DTD/svg11.dtd">
<svg xmlns="http://www.w3.org/2000/svg" version="1.1" width="2047px" height="2047px" style="shape-rendering:geometricPrecision; text-rendering:geometricPrecision; image-rendering:optimizeQuality; fill-rule:evenodd; clip-rule:evenodd" xmlns:xlink="http://www.w3.org/1999/xlink">
<g><path style="opacity:0.975" fill="#1dbcf7" d="M 1351.5,291.5 C 1312.83,291.5 1274.17,291.5 1235.5,291.5C 1164.56,251.694 1093.89,211.361 1023.5,170.5C 953.109,211.361 882.443,251.694 811.5,291.5C 772.833,291.5 734.167,291.5 695.5,291.5C 803.136,229.013 910.803,166.513 1018.5,104C 1021.83,102 1025.17,102 1028.5,104C 1136.2,166.513 1243.86,229.013 1351.5,291.5 Z"/></g>
<g><path style="opacity:0.975" fill="#1fbaf6" d="M 695.5,291.5 C 734.167,291.5 772.833,291.5 811.5,291.5C 757.164,323.67 702.497,355.337 647.5,386.5C 608.5,386.5 569.5,386.5 530.5,386.5C 585.067,354.051 640.067,322.384 695.5,291.5 Z"/></g>
<g><path style="opacity:0.975" fill="#1fbaf6" d="M 1235.5,291.5 C 1274.17,291.5 1312.83,291.5 1351.5,291.5C 1406.93,322.384 1461.93,354.051 1516.5,386.5C 1477.5,386.5 1438.5,386.5 1399.5,386.5C 1344.5,355.337 1289.84,323.67 1235.5,291.5 Z"/></g>
<g><path style="opacity:0.975" fill="#20b8f4" d="M 530.5,386.5 C 569.5,386.5 608.5,386.5 647.5,386.5C 565.899,434.308 483.899,481.641 401.5,528.5C 362.5,528.5 323.5,528.5 284.5,528.5C 366.217,480.808 448.217,433.474 530.5,386.5 Z"/></g>
<g><path style="opacity:0.975" fill="#20b8f4" d="M 1399.5,386.5 C 1438.5,386.5 1477.5,386.5 1516.5,386.5C 1598.78,433.474 1680.78,480.808 1762.5,528.5C 1723.5,528.5 1684.5,528.5 1645.5,528.5C 1563.1,481.641 1481.1,434.308 1399.5,386.5 Z"/></g>
<g><path style="opacity:0.975" fill="#21b6f2" d="M 284.5,528.5 C 323.5,528.5 362.5,528.5 401.5,528.5C 361.378,552.765 320.711,576.098 279.5,598.5C 240.833,598.5 202.167,598.5 163.5,598.5C 203.307,574.424 243.641,551.091 284.5,528.5 Z"/></g>
<g><path style="opacity:0.975" fill="#21b6f2" d="M 1645.5,528.5 C 1684.5,528.5 1723.5,528.5 1762.5,528.5C 1803.36,551.091 1843.69,574.424 1883.5,598.5C 1844.83,598.5 1806.17,598.5 1767.5,598.5C 1726.29,576.098 1685.62,552.765 1645.5,528.5 Z"/></g>
<g><path style="opacity:0.976" fill="#23b2f0" d="M 163.5,598.5 C 202.167,598.5 240.833,598.5 279.5,598.5C 251.061,615.559 222.394,632.392 193.5,649C 291.376,706.439 389.709,763.105 488.5,819C 494.07,822.275 499.403,825.775 504.5,829.5C 450.5,829.5 396.5,829.5 342.5,829.5C 342.817,820.582 342.484,811.749 341.5,803C 253.371,752.366 165.371,701.533 77.5,650.5C 76.1667,649.5 76.1667,648.5 77.5,647.5C 106.201,631.111 134.868,614.778 163.5,598.5 Z"/></g>
<g><path style="opacity:0.979" fill="#23b2ef" d="M 1767.5,598.5 C 1806.17,598.5 1844.83,598.5 1883.5,598.5C 1907.61,611.723 1931.61,625.223 1955.5,639C 1960.7,642.096 1965.7,645.429 1970.5,649C 1969.73,650.221 1968.73,651.221 1967.5,652C 1947.42,663.121 1927.59,674.621 1908,686.5C 1907.5,734.166 1907.33,781.832 1907.5,829.5C 1887.83,829.5 1868.17,829.5 1848.5,829.5C 1848.67,793.165 1848.5,756.832 1848,720.5C 1800.32,748.334 1752.48,776.001 1704.5,803.5C 1703.5,812.141 1703.17,820.808 1703.5,829.5C 1649.83,829.5 1596.17,829.5 1542.5,829.5C 1547.6,825.775 1552.93,822.275 1558.5,819C 1657.29,763.105 1755.62,706.439 1853.5,649C 1824.61,632.392 1795.94,615.559 1767.5,598.5 Z"/></g>
<g><path style="opacity:0.98" fill="#26afee" d="M 342.5,829.5 C 396.5,829.5 450.5,829.5 504.5,829.5C 517.004,836.25 529.337,843.25 541.5,850.5C 502.5,850.5 463.5,850.5 424.5,850.5C 416.455,847.063 408.955,842.729 402,837.5C 401.501,841.821 401.334,846.154 401.5,850.5C 381.833,850.5 362.167,850.5 342.5,850.5C 342.5,843.5 342.5,836.5 342.5,829.5 Z"/></g>
<g><path style="opacity:0.98" fill="#26afee" d="M 1542.5,829.5 C 1596.17,829.5 1649.83,829.5 1703.5,829.5C 1703.5,836.5 1703.5,843.5 1703.5,850.5C 1683.83,850.5 1664.17,850.5 1644.5,850.5C 1644.67,846.486 1644.5,842.486 1644,838.5C 1637.21,843.146 1630.04,847.146 1622.5,850.5C 1583.5,850.5 1544.5,850.5 1505.5,850.5C 1517.66,843.25 1530,836.25 1542.5,829.5 Z"/></g>
<g><path style="opacity:0.979" fill="#26afee" d="M 1848.5,829.5 C 1868.17,829.5 1887.83,829.5 1907.5,829.5C 1907.5,836.5 1907.5,843.5 1907.5,850.5C 1887.83,850.5 1868.17,850.5 1848.5,850.5C 1848.5,843.5 1848.5,836.5 1848.5,829.5 Z"/></g>
<g><path style="opacity:0.979" fill="#26afed" d="M 342.5,850.5 C 362.167,850.5 381.833,850.5 401.5,850.5C 401.5,862.833 401.5,875.167 401.5,887.5C 381.833,887.5 362.167,887.5 342.5,887.5C 342.5,875.167 342.5,862.833 342.5,850.5 Z"/></g>
<g><path style="opacity:0.975" fill="#26afed" d="M 424.5,850.5 C 463.5,850.5 502.5,850.5 541.5,850.5C 563.001,862.08 584.001,874.413 604.5,887.5C 565.833,887.5 527.167,887.5 488.5,887.5C 466.645,875.957 445.311,863.624 424.5,850.5 Z"/></g>
<g><path style="opacity:0.975" fill="#26afed" d="M 1505.5,850.5 C 1544.5,850.5 1583.5,850.5 1622.5,850.5C 1601.69,863.624 1580.36,875.957 1558.5,887.5C 1519.83,887.5 1481.17,887.5 1442.5,887.5C 1463,874.413 1484,862.08 1505.5,850.5 Z"/></g>
<g><path style="opacity:0.979" fill="#26afed" d="M 1644.5,850.5 C 1664.17,850.5 1683.83,850.5 1703.5,850.5C 1703.5,862.833 1703.5,875.167 1703.5,887.5C 1683.83,887.5 1664.17,887.5 1644.5,887.5C 1644.5,875.167 1644.5,862.833 1644.5,850.5 Z"/></g>
<g><path style="opacity:0.979" fill="#26afed" d="M 1848.5,850.5 C 1868.17,850.5 1887.83,850.5 1907.5,850.5C 1907.5,862.833 1907.5,875.167 1907.5,887.5C 1887.83,887.5 1868.17,887.5 1848.5,887.5C 1848.5,875.167 1848.5,862.833 1848.5,850.5 Z"/></g>
<g><path style="opacity:0.98" fill="#28aae9" d="M 342.5,887.5 C 362.167,887.5 381.833,887.5 401.5,887.5C 401.167,931.838 401.5,976.172 402.5,1020.5C 460.224,1053.36 517.557,1086.69 574.5,1120.5C 535.833,1120.5 497.167,1120.5 458.5,1120.5C 439.888,1109.86 421.221,1099.19 402.5,1088.5C 401.501,1099.15 401.168,1109.81 401.5,1120.5C 381.833,1120.5 362.167,1120.5 342.5,1120.5C 342.5,1042.83 342.5,965.167 342.5,887.5 Z"/></g>
<g><path style="opacity:0.975" fill="#28abea" d="M 488.5,887.5 C 527.167,887.5 565.833,887.5 604.5,887.5C 739.764,964.132 874.43,1041.8 1008.5,1120.5C 969.833,1120.5 931.167,1120.5 892.5,1120.5C 757.531,1043.35 622.864,965.682 488.5,887.5 Z"/></g>
<g><path style="opacity:0.977" fill="#28abea" d="M 1442.5,887.5 C 1481.17,887.5 1519.83,887.5 1558.5,887.5C 1508.63,916.446 1458.63,945.446 1408.5,974.5C 1407.5,1023.16 1407.17,1071.83 1407.5,1120.5C 1387.83,1120.5 1368.17,1120.5 1348.5,1120.5C 1348.83,1083.49 1348.5,1046.49 1347.5,1009.5C 1283.41,1046.92 1219.08,1083.92 1154.5,1120.5C 1115.83,1120.5 1077.17,1120.5 1038.5,1120.5C 1172.57,1041.8 1307.24,964.132 1442.5,887.5 Z"/></g>
<g><path style="opacity:0.979" fill="#28abea" d="M 1644.5,887.5 C 1664.17,887.5 1683.83,887.5 1703.5,887.5C 1703.5,965.167 1703.5,1042.83 1703.5,1120.5C 1683.83,1120.5 1664.17,1120.5 1644.5,1120.5C 1644.5,1042.83 1644.5,965.167 1644.5,887.5 Z"/></g>
<g><path style="opacity:0.985" fill="#28abea" d="M 1848.5,887.5 C 1868.17,887.5 1887.83,887.5 1907.5,887.5C 1907.17,898.853 1907.5,910.186 1908.5,921.5C 1942.79,935.63 1963.29,960.963 1970,997.5C 1972.96,1028.29 1963.46,1054.46 1941.5,1076C 1934.04,1082.12 1926.04,1087.45 1917.5,1092C 1918.89,1093.17 1919.73,1094.67 1920,1096.5C 1921.74,1104.54 1923.57,1112.54 1925.5,1120.5C 1893.83,1120.5 1862.17,1120.5 1830.5,1120.5C 1832.62,1110.84 1835.29,1101.34 1838.5,1092C 1791.16,1064.77 1775.99,1024.94 1793,972.5C 1804.84,948.83 1823.01,931.83 1847.5,921.5C 1848.5,910.186 1848.83,898.853 1848.5,887.5 Z"/></g>
<g><path style="opacity:0.582" fill="#2aa9e8" d="M 687.5,1120.5 C 685.167,1120.5 682.833,1120.5 680.5,1120.5C 680.238,1119.02 680.571,1117.69 681.5,1116.5C 683.565,1117.86 685.565,1119.19 687.5,1120.5 Z"/></g>
<g><path style="opacity:0.979" fill="#2aa8e8" d="M 342.5,1120.5 C 362.167,1120.5 381.833,1120.5 401.5,1120.5C 401.5,1129.5 401.5,1138.5 401.5,1147.5C 381.833,1147.5 362.167,1147.5 342.5,1147.5C 342.5,1138.5 342.5,1129.5 342.5,1120.5 Z"/></g>
<g><path style="opacity:0.975" fill="#2aa8e8" d="M 458.5,1120.5 C 497.167,1120.5 535.833,1120.5 574.5,1120.5C 590.664,1128.75 606.331,1137.75 621.5,1147.5C 582.5,1147.5 543.5,1147.5 504.5,1147.5C 489.131,1138.49 473.798,1129.49 458.5,1120.5 Z"/></g>
<g><path style="opacity:0.937" fill="#2aa8e8" d="M 680.5,1120.5 C 682.833,1120.5 685.167,1120.5 687.5,1120.5C 695.968,1124.9 704.301,1129.57 712.5,1134.5C 713.492,1138.78 713.826,1143.12 713.5,1147.5C 702.5,1147.5 691.5,1147.5 680.5,1147.5C 680.5,1138.5 680.5,1129.5 680.5,1120.5 Z"/></g>
<g><path style="opacity:0.981" fill="#2aa8e8" d="M 892.5,1120.5 C 931.167,1120.5 969.833,1120.5 1008.5,1120.5C 1013.57,1122.64 1018.57,1124.97 1023.5,1127.5C 1028.43,1124.97 1033.43,1122.64 1038.5,1120.5C 1077.17,1120.5 1115.83,1120.5 1154.5,1120.5C 1139.2,1129.49 1123.87,1138.49 1108.5,1147.5C 1051.83,1147.5 995.167,1147.5 938.5,1147.5C 923.131,1138.49 907.798,1129.49 892.5,1120.5 Z"/></g>
<g><path style="opacity:0.979" fill="#2aa8e8" d="M 1348.5,1120.5 C 1368.17,1120.5 1387.83,1120.5 1407.5,1120.5C 1407.5,1129.5 1407.5,1138.5 1407.5,1147.5C 1387.83,1147.5 1368.17,1147.5 1348.5,1147.5C 1348.5,1138.5 1348.5,1129.5 1348.5,1120.5 Z"/></g>
<g><path style="opacity:0.979" fill="#2aa8e8" d="M 1644.5,1120.5 C 1664.17,1120.5 1683.83,1120.5 1703.5,1120.5C 1703.5,1129.5 1703.5,1138.5 1703.5,1147.5C 1683.83,1147.5 1664.17,1147.5 1644.5,1147.5C 1644.5,1138.5 1644.5,1129.5 1644.5,1120.5 Z"/></g>
<g><path style="opacity:0.983" fill="#2aa8e8" d="M 1830.5,1120.5 C 1862.17,1120.5 1893.83,1120.5 1925.5,1120.5C 1928.3,1129.35 1930.97,1138.35 1933.5,1147.5C 1896.5,1147.5 1859.5,1147.5 1822.5,1147.5C 1825.01,1138.44 1827.68,1129.44 1830.5,1120.5 Z"/></g>
<g><path style="opacity:0.979" fill="#2aa6e6" d="M 342.5,1147.5 C 362.167,1147.5 381.833,1147.5 401.5,1147.5C 401.5,1171.17 401.5,1194.83 401.5,1218.5C 381.833,1218.5 362.167,1218.5 342.5,1218.5C 342.5,1194.83 342.5,1171.17 342.5,1147.5 Z"/></g>
<g><path style="opacity:0.975" fill="#2aa6e6" d="M 504.5,1147.5 C 543.5,1147.5 582.5,1147.5 621.5,1147.5C 662.998,1170.41 703.998,1194.08 744.5,1218.5C 705.833,1218.5 667.167,1218.5 628.5,1218.5C 587.159,1194.83 545.825,1171.16 504.5,1147.5 Z"/></g>
<g><path style="opacity:0.923" fill="#2aa7e7" d="M 680.5,1147.5 C 691.5,1147.5 702.5,1147.5 713.5,1147.5C 713.832,1158.85 713.499,1170.19 712.5,1181.5C 701.614,1176.1 691.114,1170.1 681,1163.5C 680.501,1158.18 680.334,1152.84 680.5,1147.5 Z"/></g>
<g><path style="opacity:0.982" fill="#2aa7e6" d="M 938.5,1147.5 C 995.167,1147.5 1051.83,1147.5 1108.5,1147.5C 1089.45,1158.11 1070.62,1169.11 1052,1180.5C 1051.5,1193.16 1051.33,1205.83 1051.5,1218.5C 1032.17,1218.5 1012.83,1218.5 993.5,1218.5C 993.5,1205.17 993.5,1191.83 993.5,1178.5C 991.692,1178.51 990.025,1178.01 988.5,1177C 971.935,1166.89 955.268,1157.05 938.5,1147.5 Z"/></g>
<g><path style="opacity:0.979" fill="#2aa6e6" d="M 1348.5,1147.5 C 1368.17,1147.5 1387.83,1147.5 1407.5,1147.5C 1407.5,1171.17 1407.5,1194.83 1407.5,1218.5C 1387.83,1218.5 1368.17,1218.5 1348.5,1218.5C 1348.5,1194.83 1348.5,1171.17 1348.5,1147.5 Z"/></g>
<g><path style="opacity:0.979" fill="#2aa6e6" d="M 1644.5,1147.5 C 1664.17,1147.5 1683.83,1147.5 1703.5,1147.5C 1703.5,1171.17 1703.5,1194.83 1703.5,1218.5C 1683.83,1218.5 1664.17,1218.5 1644.5,1218.5C 1644.5,1194.83 1644.5,1171.17 1644.5,1147.5 Z"/></g>
<g><path style="opacity:0.986" fill="#2aa6e6" d="M 1822.5,1147.5 C 1859.5,1147.5 1896.5,1147.5 1933.5,1147.5C 1940.62,1170.96 1946.95,1194.63 1952.5,1218.5C 1902.83,1218.5 1853.17,1218.5 1803.5,1218.5C 1809.99,1194.87 1816.32,1171.21 1822.5,1147.5 Z"/></g>
<g><path style="opacity:0.98" fill="#2ca3e4" d="M 342.5,1218.5 C 362.167,1218.5 381.833,1218.5 401.5,1218.5C 401.167,1235.18 401.501,1251.85 402.5,1268.5C 456.531,1299.85 510.531,1331.18 564.5,1362.5C 525.833,1362.5 487.167,1362.5 448.5,1362.5C 432.489,1354.74 416.989,1346.08 402,1336.5C 401.5,1345.16 401.334,1353.83 401.5,1362.5C 381.833,1362.5 362.167,1362.5 342.5,1362.5C 342.5,1314.5 342.5,1266.5 342.5,1218.5 Z"/></g>
<g><path style="opacity:0.981" fill="#2ca4e4" d="M 628.5,1218.5 C 667.167,1218.5 705.833,1218.5 744.5,1218.5C 827.555,1265.78 910.389,1313.44 993,1361.5C 993.5,1313.83 993.667,1266.17 993.5,1218.5C 1012.83,1218.5 1032.17,1218.5 1051.5,1218.5C 1051.5,1266.5 1051.5,1314.5 1051.5,1362.5C 993.5,1362.5 935.5,1362.5 877.5,1362.5C 799.797,1317.98 722.13,1273.48 644.5,1229C 638.93,1225.72 633.597,1222.22 628.5,1218.5 Z"/></g>
<g><path style="opacity:0.979" fill="#2ca4e4" d="M 1348.5,1218.5 C 1368.17,1218.5 1387.83,1218.5 1407.5,1218.5C 1407.5,1266.5 1407.5,1314.5 1407.5,1362.5C 1387.83,1362.5 1368.17,1362.5 1348.5,1362.5C 1348.5,1314.5 1348.5,1266.5 1348.5,1218.5 Z"/></g>
<g><path style="opacity:0.979" fill="#2ca4e4" d="M 1644.5,1218.5 C 1664.17,1218.5 1683.83,1218.5 1703.5,1218.5C 1703.5,1266.5 1703.5,1314.5 1703.5,1362.5C 1683.83,1362.5 1664.17,1362.5 1644.5,1362.5C 1644.5,1314.5 1644.5,1266.5 1644.5,1218.5 Z"/></g>
<g><path style="opacity:0.986" fill="#2ca5e5" d="M 1803.5,1218.5 C 1853.17,1218.5 1902.83,1218.5 1952.5,1218.5C 1958.81,1239.73 1964.81,1261.06 1970.5,1282.5C 1909.17,1282.5 1847.83,1282.5 1786.5,1282.5C 1791.36,1260.94 1797.02,1239.6 1803.5,1218.5 Z"/></g>
<g><path style="opacity:0.929" fill="#2da3e4" d="M 1457.5,1289.5 C 1458.83,1296.97 1459.5,1304.8 1459.5,1313C 1459.17,1320.83 1458.83,1328.67 1458.5,1336.5C 1447.92,1342.71 1437.42,1349.04 1427,1355.5C 1426.33,1339.5 1426.33,1323.5 1427,1307.5C 1437.61,1302.12 1447.78,1296.12 1457.5,1289.5 Z"/></g>
<g><path style="opacity:0.979" fill="#2ea0e1" d="M 342.5,1362.5 C 362.167,1362.5 381.833,1362.5 401.5,1362.5C 401.171,1414.91 401.505,1467.24 402.5,1519.5C 382.5,1519.5 362.5,1519.5 342.5,1519.5C 342.5,1467.17 342.5,1414.83 342.5,1362.5 Z"/></g>
<g><path style="opacity:0.975" fill="#2ea0e1" d="M 448.5,1362.5 C 487.167,1362.5 525.833,1362.5 564.5,1362.5C 655.534,1414.35 746.2,1466.68 836.5,1519.5C 797.5,1519.5 758.5,1519.5 719.5,1519.5C 639.365,1473.86 559.365,1428.02 479.5,1382C 468.993,1375.64 458.66,1369.14 448.5,1362.5 Z"/></g>
<g><path style="opacity:0.99" fill="#2ea1e2" d="M 877.5,1362.5 C 935.5,1362.5 993.5,1362.5 1051.5,1362.5C 1051.5,1414.83 1051.5,1467.17 1051.5,1519.5C 1032.17,1519.5 1012.83,1519.5 993.5,1519.5C 993.833,1489.49 993.5,1459.49 992.5,1429.5C 953.94,1407.39 915.606,1385.06 877.5,1362.5 Z"/></g>
<g><path style="opacity:0.979" fill="#2ea0e1" d="M 1348.5,1362.5 C 1368.17,1362.5 1387.83,1362.5 1407.5,1362.5C 1407.5,1414.83 1407.5,1467.17 1407.5,1519.5C 1387.83,1519.5 1368.17,1519.5 1348.5,1519.5C 1348.5,1467.17 1348.5,1414.83 1348.5,1362.5 Z"/></g>
<g><path style="opacity:0.979" fill="#2ea0e1" d="M 1644.5,1362.5 C 1664.17,1362.5 1683.83,1362.5 1703.5,1362.5C 1703.5,1414.83 1703.5,1467.17 1703.5,1519.5C 1683.5,1519.5 1663.5,1519.5 1643.5,1519.5C 1644.5,1467.24 1644.83,1414.91 1644.5,1362.5 Z"/></g>
<g><path style="opacity:0.93" fill="#2ea1e2" d="M 680.5,1364.5 C 690.894,1370.87 701.56,1376.87 712.5,1382.5C 713.833,1398.5 713.833,1414.5 712.5,1430.5C 701.917,1424.29 691.417,1417.96 681,1411.5C 680.5,1395.84 680.333,1380.17 680.5,1364.5 Z"/></g>
<g><path style="opacity:0.93" fill="#2ea1e2" d="M 1327.5,1364.5 C 1328.83,1371.97 1329.5,1379.8 1329.5,1388C 1329.33,1395.83 1329.17,1403.67 1329,1411.5C 1318.17,1417.58 1307.5,1423.91 1297,1430.5C 1296.33,1414.5 1296.33,1398.5 1297,1382.5C 1307.64,1377.1 1317.81,1371.1 1327.5,1364.5 Z"/></g>
<g><path style="opacity:0.975" fill="#309ddf" d="M 342.5,1519.5 C 362.5,1519.5 382.5,1519.5 402.5,1519.5C 473.41,1559.74 544.076,1600.41 614.5,1641.5C 575.5,1641.5 536.5,1641.5 497.5,1641.5C 446.258,1612.21 394.925,1582.87 343.5,1553.5C 342.501,1542.19 342.168,1530.85 342.5,1519.5 Z"/></g>
<g><path style="opacity:0.983" fill="#309ddf" d="M 719.5,1519.5 C 758.5,1519.5 797.5,1519.5 836.5,1519.5C 888.799,1548.98 940.799,1578.98 992.5,1609.5C 993.5,1579.51 993.833,1549.51 993.5,1519.5C 1012.83,1519.5 1032.17,1519.5 1051.5,1519.5C 1051.5,1560.17 1051.5,1600.83 1051.5,1641.5C 1011.17,1641.5 970.833,1641.5 930.5,1641.5C 859.705,1601.6 789.372,1560.94 719.5,1519.5 Z"/></g>
<g><path style="opacity:0.979" fill="#309ddf" d="M 1348.5,1519.5 C 1368.17,1519.5 1387.83,1519.5 1407.5,1519.5C 1407.5,1560.17 1407.5,1600.83 1407.5,1641.5C 1387.83,1641.5 1368.17,1641.5 1348.5,1641.5C 1348.5,1600.83 1348.5,1560.17 1348.5,1519.5 Z"/></g>
<g><path style="opacity:0.975" fill="#309ddf" d="M 1643.5,1519.5 C 1663.5,1519.5 1683.5,1519.5 1703.5,1519.5C 1703.83,1530.85 1703.5,1542.19 1702.5,1553.5C 1651.05,1582.88 1599.71,1612.22 1548.5,1641.5C 1509.5,1641.5 1470.5,1641.5 1431.5,1641.5C 1501.92,1600.41 1572.59,1559.74 1643.5,1519.5 Z"/></g>
<g><path style="opacity:0.92" fill="#319ddf" d="M 713.5,1641.5 C 702.5,1641.5 691.5,1641.5 680.5,1641.5C 680.334,1633.49 680.5,1625.49 681,1617.5C 691.253,1624.04 701.753,1630.21 712.5,1636C 713.406,1637.7 713.739,1639.53 713.5,1641.5 Z"/></g>
<g><path style="opacity:0.977" fill="#319cde" d="M 497.5,1641.5 C 536.5,1641.5 575.5,1641.5 614.5,1641.5C 626.098,1647.78 637.432,1654.44 648.5,1661.5C 609.5,1661.5 570.5,1661.5 531.5,1661.5C 519.902,1655.22 508.568,1648.56 497.5,1641.5 Z"/></g>
<g><path style="opacity:0.963" fill="#319cde" d="M 680.5,1641.5 C 691.5,1641.5 702.5,1641.5 713.5,1641.5C 713.5,1648.17 713.5,1654.83 713.5,1661.5C 702.5,1661.5 691.5,1661.5 680.5,1661.5C 680.5,1654.83 680.5,1648.17 680.5,1641.5 Z"/></g>
<g><path style="opacity:0.985" fill="#319cde" d="M 930.5,1641.5 C 970.833,1641.5 1011.17,1641.5 1051.5,1641.5C 1051.5,1648.17 1051.5,1654.83 1051.5,1661.5C 1022.5,1661.5 993.5,1661.5 964.5,1661.5C 952.884,1655.2 941.551,1648.53 930.5,1641.5 Z"/></g>
<g><path style="opacity:0.981" fill="#319cde" d="M 1348.5,1641.5 C 1368.17,1641.5 1387.83,1641.5 1407.5,1641.5C 1407.17,1645.88 1407.51,1650.22 1408.5,1654.5C 1416.06,1649.89 1423.73,1645.56 1431.5,1641.5C 1470.5,1641.5 1509.5,1641.5 1548.5,1641.5C 1537.43,1648.56 1526.1,1655.22 1514.5,1661.5C 1459.17,1661.5 1403.83,1661.5 1348.5,1661.5C 1348.5,1654.83 1348.5,1648.17 1348.5,1641.5 Z"/></g>
<g><path style="opacity:0.98" fill="#329adc" d="M 531.5,1661.5 C 570.5,1661.5 609.5,1661.5 648.5,1661.5C 664.359,1670.51 680.359,1679.34 696.5,1688C 795.351,1745.35 894.184,1802.85 993,1860.5C 993.833,1799.5 993.667,1738.5 992.5,1677.5C 983.104,1672.14 973.771,1666.81 964.5,1661.5C 993.5,1661.5 1022.5,1661.5 1051.5,1661.5C 1051.17,1727.84 1051.5,1794.17 1052.5,1860.5C 1150.77,1803.21 1249.1,1746.21 1347.5,1689.5C 1348.5,1680.19 1348.83,1670.86 1348.5,1661.5C 1403.83,1661.5 1459.17,1661.5 1514.5,1661.5C 1352.37,1755.07 1190.37,1848.9 1028.5,1943C 1025.63,1944.46 1022.63,1944.79 1019.5,1944C 856.998,1849.58 694.332,1755.41 531.5,1661.5 Z"/></g>
<g><path style="opacity:0.895" fill="#329cde" d="M 680.5,1661.5 C 691.5,1661.5 702.5,1661.5 713.5,1661.5C 713.831,1668.86 713.497,1676.2 712.5,1683.5C 702.167,1677.33 691.833,1671.17 681.5,1665C 680.663,1663.99 680.33,1662.82 680.5,1661.5 Z"/></g>
</svg>
