<?xml version="1.0" standalone="no"?>
<!DOCTYPE svg PUBLIC "-//W3C//DTD SVG 20010904//EN"
 "http://www.w3.org/TR/2001/REC-SVG-20010904/DTD/svg10.dtd">
<svg version="1.0" xmlns="http://www.w3.org/2000/svg"
 width="512.000000pt" height="512.000000pt" viewBox="0 0 512.000000 512.000000"
 preserveAspectRatio="xMidYMid meet">

<g transform="translate(0.000000,512.000000) scale(0.100000,-0.100000)"
fill="#000000" stroke="none">
<path d="M2385 4920 c-319 -34 -637 -162 -890 -358 -321 -248 -533 -579 -636
-992 -23 -90 -24 -112 -24 -405 0 -329 3 -358 55 -581 140 -593 490 -1221 986
-1768 183 -202 532 -533 637 -604 49 -33 52 -31 217 108 311 264 629 613 878
962 357 503 561 970 653 1493 27 153 37 479 20 622 -85 697 -593 1287 -1266
1468 -177 47 -464 72 -630 55z m428 -385 c112 -23 237 -69 348 -127 367 -191
644 -571 710 -973 21 -128 16 -380 -10 -502 -94 -446 -406 -817 -826 -983
-175 -69 -242 -82 -461 -87 -219 -6 -284 2 -448 54 -463 146 -814 537 -922
1025 -23 104 -23 423 0 530 55 253 169 471 346 661 197 210 445 348 735 408
114 24 404 21 528 -6z"/>
<path d="M2225 3761 c-541 -258 -705 -339 -705 -348 0 -4 27 -25 60 -45 l60
-37 0 -168 0 -168 -34 -57 c-39 -64 -37 -68 44 -68 82 0 85 4 50 66 -30 53
-30 56 -29 191 1 202 -6 194 118 122 57 -33 105 -58 106 -57 1 2 13 19 26 39
88 133 317 209 623 209 304 0 519 -64 621 -183 19 -22 35 -47 35 -54 0 -7 4
-13 9 -13 11 0 351 197 369 214 10 10 -45 41 -270 150 -391 192 -743 356 -759
356 -8 0 -153 -67 -324 -149z"/>
<path d="M2338 3375 c-154 -26 -268 -73 -335 -138 l-43 -41 0 -266 c0 -246 2
-267 20 -297 114 -188 716 -244 1027 -96 30 14 72 42 94 63 l39 37 0 281 0
281 -30 34 c-85 97 -317 158 -590 156 -58 -1 -140 -7 -182 -14z m517 -569
c121 -34 215 -91 215 -131 0 -39 -175 -114 -320 -136 -106 -16 -396 -7 -481
15 -79 21 -209 84 -224 109 -27 46 85 115 250 153 88 20 477 13 560 -10z"/>
</g>
</svg>
