<?xml version="1.0" standalone="no"?>
<!DOCTYPE svg PUBLIC "-//W3C//DTD SVG 20010904//EN"
 "http://www.w3.org/TR/2001/REC-SVG-20010904/DTD/svg10.dtd">
<svg version="1.0" xmlns="http://www.w3.org/2000/svg"
 width="1024.000000pt" height="1024.000000pt" viewBox="0 0 1024.000000 1024.000000"
 preserveAspectRatio="xMidYMid meet">
<metadata>
Created by potrace 1.14, written by Peter Selinger 2001-2017
</metadata>
<g transform="translate(0.000000,1024.000000) scale(0.100000,-0.100000)"
fill="#000000" stroke="none">
<path d="M5085 8581 c-6 -5 -703 -408 -1550 -897 -847 -488 -1646 -948 -1775
-1023 -206 -119 -235 -139 -235 -161 0 -22 53 -55 495 -310 l495 -286 5 -1411
c3 -923 8 -1415 15 -1421 6 -5 309 -181 675 -392 366 -211 940 -542 1277 -737
337 -194 621 -353 631 -353 15 0 2569 1465 2592 1487 3 3 7 640 10 1416 l5
1411 45 26 c25 15 132 76 238 138 l192 111 0 -342 0 -342 -46 -24 c-63 -34
-138 -119 -165 -189 -17 -42 -22 -78 -22 -137 0 -118 27 -181 115 -269 l70
-68 -92 -336 c-51 -185 -94 -341 -97 -348 -2 -6 3 -19 12 -28 15 -14 57 -16
369 -16 301 0 355 2 366 15 10 12 -5 80 -84 367 l-96 353 27 20 c53 37 97 90
127 155 28 58 31 75 31 155 0 80 -3 97 -32 157 -34 72 -96 140 -156 173 l-37
20 0 425 0 425 113 66 c161 94 167 82 -123 250 -129 75 -885 511 -1680 969
-795 458 -1494 861 -1553 896 -105 62 -142 74 -162 55z m1566 -1193 c841 -486
1529 -885 1529 -888 0 -3 -689 -402 -1530 -887 l-1530 -882 -1530 882 c-841
485 -1530 884 -1530 887 0 4 3048 1768 3058 1770 2 0 692 -397 1533 -882z
m-2753 -2282 l1072 -618 0 -304 c0 -167 -2 -304 -5 -304 -19 0 -1016 585
-1002 588 15 3 17 17 17 112 l0 108 -70 41 c-107 64 -124 50 -118 -97 3 -69 1
-79 -12 -72 -8 5 -229 132 -490 283 l-475 275 -3 307 c-1 169 1 305 6 303 5
-1 491 -281 1080 -622z m3532 -619 l0 -1242 -407 -235 c-223 -129 -410 -236
-415 -238 -4 -2 -8 238 -8 533 0 488 1 535 16 521 22 -22 27 -21 104 24 77 45
80 51 80 162 0 82 -16 115 -49 103 -48 -18 -140 -78 -144 -93 -3 -9 -5 264 -6
608 l-1 625 408 237 c224 130 410 236 415 237 4 1 7 -558 7 -1242z m-1120 -43
c0 -570 -2 -634 -15 -620 -18 18 -30 15 -112 -33 l-62 -36 -3 -95 c-4 -116 -1
-130 24 -130 28 0 157 72 162 90 2 8 3 -219 2 -505 l-1 -520 -523 -301 -522
-302 2 1246 3 1247 515 297 c283 164 518 298 523 298 4 0 7 -286 7 -636z
m-2372 -304 l1031 -595 1 -303 0 -303 -58 33 c-467 266 -956 554 -945 556 11
3 13 26 11 115 l-3 112 -60 36 c-75 46 -91 51 -111 32 -12 -13 -15 -35 -12
-109 2 -52 2 -94 0 -94 -1 0 -223 127 -492 282 l-490 283 0 303 0 302 48 -27
c27 -16 513 -296 1080 -623z m-39 -914 l1071 -618 0 -305 c0 -168 -4 -303 -9
-301 -4 2 -229 131 -499 287 -399 230 -490 287 -484 300 4 9 6 60 4 113 l-3
98 -69 41 c-104 61 -118 51 -122 -89 l-3 -72 -487 281 -488 281 0 305 c0 172
4 303 9 301 5 -1 491 -281 1080 -622z"/>
</g>
</svg>
